PathFileType	4	(x/y/z)	S04_BK_Cal.trc
DataRate	CameraRate	NumFrames	NumMarkers	Units	OrigDataRate	OrigDataStartFrame	OrigNumFrames
240	240	8	51	mm	240	301	2400
Frame#	Time	Sternum			R.Acromium			L.Acromium			Top.Head			R.ASIS			L.ASIS			R.PSIS			L.PSIS			R.Great.Tro			L.Great.Tro			R.Iliac.Crest			L.Iliac.Crest			V.Sacral			R.Thigh.Upper.Post			R.Thigh.Lower.Ant			R.Thigh.Lower.Post			R.Thigh.Upper.Ant			R.Knee.Lat			R.Knee.Med			R.Shank.Upper.Post			R.Shank.Lower.Ant			R.Shank.Lower.Post			R.Shank.Upper.Ant			R.Ankle.Lat			R.Ankle.Med			R.Heel.Upper			R.Heel.Med			R.Heel.Lat			R.Toe.Lat			R.Toe.Med			R.Toe.Tip			L.Thigh.Upper.Post			L.Thigh.Lower.Ant			L.Thigh.Lower.Post			L.Thigh.Upper.Ant			L.Knee.Lat			L.Knee.Med			L.Shank.Upper.Post			L.Shank.Lower.Ant			L.Shank.Lower.Post			L.Shank.Upper.Ant			L.Ankle.Lat			L.Ankle.Med			L.Heel.Upper			L.Heel.Med			L.Heel.Lat			L.Toe.Lat			L.Toe.Med			L.Toe.Tip			Cervical.Spine			Back			
		X1	Y1	Z1	X2	Y2	Z2	X3	Y3	Z3	X4	Y4	Z4	X5	Y5	Z5	X6	Y6	Z6	X7	Y7	Z7	X8	Y8	Z8	X9	Y9	Z9	X10	Y10	Z10	X11	Y11	Z11	X12	Y12	Z12	X13	Y13	Z13	X14	Y14	Z14	X15	Y15	Z15	X16	Y16	Z16	X17	Y17	Z17	X18	Y18	Z18	X19	Y19	Z19	X20	Y20	Z20	X21	Y21	Z21	X22	Y22	Z22	X23	Y23	Z23	X24	Y24	Z24	X25	Y25	Z25	X26	Y26	Z26	X27	Y27	Z27	X28	Y28	Z28	X29	Y29	Z29	X30	Y30	Z30	X31	Y31	Z31	X32	Y32	Z32	X33	Y33	Z33	X34	Y34	Z34	X35	Y35	Z35	X36	Y36	Z36	X37	Y37	Z37	X38	Y38	Z38	X39	Y39	Z39	X40	Y40	Z40	X41	Y41	Z41	X42	Y42	Z42	X43	Y43	Z43	X44	Y44	Z44	X45	Y45	Z45	X46	Y46	Z46	X47	Y47	Z47	X48	Y48	Z48	X49	Y49	Z49	X50	Y50	Z50	X51	Y51	Z51	

301	1.25	342.91	1220.8	293.85	221.96	1450.7	476.35	197.94	1441.4	130.58	219.57	1770.7	294.94	312.75	937.73	432.98	310.5	952.17	184.87	98.909	976.28	336.85	104.64	979.57	253.79	226.18	864.51	500.71	198.44	869.17	116.38	233.73	1030.6	475.7	213.64	1036.2	139.8	80.851	935.63	295.46	301.76	614.87	513.19	402.21	560.74	490.54	332.16	529.37	502.07	373.07	667.19	503.6	370.88	469.84	495.62	358.63	458.5	368.21	230.67	286.93	505.12	264.41	187.84	463.6	205.64	221.01	492.65	288.13	254.71	485.04	166.46	110.33	478.31	190.41	115.56	388.92	97.693	75.427	421.7	108.24	44.516	392.47	98.424	44.181	457.01	263.66	39.797	519.33	311.22	39.588	402.93	369.19	56.396	457	256.92	635.18	105.43	366.24	573.84	89.534	298.07	555.26	107.17	321.17	652.76	86.655	364.04	479.49	99.747	380.84	457.19	223.62	229.29	342.63	93.511	265.83	238.18	86.585	209.14	267.56	94.607	285.89	312.04	83.666	178.56	105.28	97.883	186.97	111.35	192.06	101.48	73.458	141.55	108.74	47.58	175	105.25	46.498	113.08	288.02	42.598	69.655	321.69	47.863	184.66	377.87	56.954	133.96	167.8	1494.2	308.23	86.298	1239.2	290.24
302	1.2542	342.88	1220.9	293.83	221.94	1450.7	476.32	197.92	1441.4	130.55	219.55	1770.7	294.91	312.72	937.75	432.97	310.47	952.18	184.85	98.884	976.3	336.83	104.62	979.6	253.76	226.15	864.53	500.7	198.41	869.19	116.37	233.7	1030.6	475.68	213.62	1036.2	139.78	80.823	935.66	295.46	301.72	614.9	513.19	402.17	560.75	490.53	332.12	529.39	502.07	373.03	667.21	503.59	370.84	469.86	495.61	358.59	458.52	368.2	230.65	286.94	505.12	264.4	187.85	463.61	205.63	221.02	492.65	288.11	254.72	485.04	166.46	110.33	478.31	190.4	115.56	388.92	97.692	75.426	421.7	108.26	44.508	392.48	98.424	44.181	457.01	263.66	39.798	519.33	311.22	39.59	402.93	369.19	56.397	457	256.89	635.2	105.42	366.21	573.85	89.529	298.04	555.28	107.16	321.14	652.78	86.649	364.01	479.5	99.743	380.81	457.2	223.62	229.27	342.64	93.508	265.82	238.19	86.584	209.12	267.56	94.605	285.87	312.05	83.66	178.56	105.28	97.883	186.97	111.35	192.06	101.49	73.455	141.55	108.74	47.579	175	105.25	46.497	113.08	288.02	42.598	69.655	321.69	47.864	184.66	377.87	56.956	133.96	167.78	1494.2	308.2	86.282	1239.2	290.22
303	1.2583	342.86	1220.9	293.81	221.91	1450.7	476.3	197.9	1441.4	130.53	219.53	1770.8	294.88	312.68	937.77	432.95	310.45	952.2	184.83	98.858	976.33	336.82	104.59	979.63	253.74	226.11	864.55	500.68	198.39	869.21	116.35	233.68	1030.7	475.66	213.61	1036.2	139.76	80.795	935.69	295.47	301.68	614.94	513.18	402.13	560.77	490.52	332.08	529.42	502.06	373	667.22	503.58	370.79	469.89	495.61	358.55	458.54	368.2	230.62	286.95	505.12	264.38	187.87	463.61	205.61	221.02	492.65	288.09	254.74	485.04	166.46	110.33	478.31	190.4	115.56	388.92	97.691	75.426	421.7	108.27	44.502	392.49	98.423	44.181	457	263.66	39.799	519.33	311.22	39.591	402.93	369.19	56.398	457	256.87	635.22	105.41	366.19	573.86	89.525	298.01	555.29	107.15	321.12	652.79	86.644	363.98	479.52	99.738	380.78	457.21	223.62	229.25	342.64	93.506	265.8	238.19	86.583	209.11	267.57	94.603	285.84	312.07	83.655	178.57	105.27	97.883	186.97	111.35	192.06	101.49	73.453	141.55	108.74	47.578	174.99	105.25	46.496	113.08	288.02	42.598	69.656	321.69	47.865	184.66	377.87	56.959	133.96	167.75	1494.2	308.18	86.265	1239.3	290.21
304	1.2625	342.84	1220.9	293.8	221.88	1450.7	476.27	197.88	1441.5	130.51	219.5	1770.8	294.85	312.65	937.8	432.93	310.42	952.21	184.82	98.831	976.36	336.8	104.56	979.66	253.72	226.08	864.58	500.66	198.36	869.23	116.33	233.65	1030.7	475.64	213.59	1036.3	139.75	80.767	935.72	295.47	301.64	614.97	513.18	402.1	560.79	490.51	332.04	529.44	502.05	372.97	667.24	503.57	370.75	469.91	495.61	358.51	458.56	368.19	230.6	286.95	505.11	264.37	187.88	463.61	205.59	221.03	492.65	288.07	254.76	485.03	166.45	110.33	478.31	190.4	115.56	388.92	97.691	75.426	421.7	108.27	44.496	392.49	98.423	44.181	457	263.66	39.799	519.33	311.22	39.593	402.93	369.19	56.399	457	256.84	635.24	105.4	366.16	573.88	89.521	297.98	555.31	107.14	321.09	652.8	86.639	363.95	479.53	99.734	380.75	457.23	223.61	229.23	342.65	93.503	265.79	238.2	86.582	209.09	267.57	94.6	285.82	312.09	83.649	178.57	105.27	97.883	186.97	111.35	192.05	101.5	73.45	141.55	108.74	47.577	174.99	105.25	46.495	113.08	288.02	42.598	69.656	321.69	47.866	184.66	377.87	56.962	133.96	167.72	1494.2	308.15	86.249	1239.3	290.19
305	1.2667	342.82	1220.9	293.78	221.86	1450.7	476.25	197.86	1441.5	130.48	219.47	1770.8	294.81	312.62	937.82	432.91	310.4	952.23	184.8	98.804	976.38	336.78	104.53	979.68	253.69	226.05	864.6	500.65	198.33	869.25	116.32	233.62	1030.7	475.63	213.57	1036.3	139.73	80.74	935.74	295.47	301.6	615	513.17	402.06	560.81	490.5	332	529.46	502.05	372.94	667.26	503.56	370.71	469.93	495.6	358.47	458.58	368.19	230.58	286.96	505.11	264.36	187.89	463.61	205.58	221.04	492.65	288.05	254.77	485.03	166.45	110.33	478.31	190.4	115.56	388.92	97.69	75.426	421.7	108.28	44.493	392.5	98.422	44.181	457	263.66	39.8	519.33	311.22	39.596	402.93	369.19	56.4	457	256.81	635.25	105.38	366.13	573.89	89.517	297.95	555.32	107.13	321.06	652.81	86.634	363.92	479.55	99.73	380.72	457.24	223.61	229.21	342.66	93.499	265.78	238.21	86.581	209.08	267.58	94.597	285.8	312.1	83.643	178.58	105.27	97.883	186.97	111.35	192.05	101.51	73.448	141.55	108.74	47.576	174.99	105.26	46.494	113.08	288.02	42.598	69.656	321.68	47.867	184.66	377.87	56.965	133.96	167.7	1494.3	308.12	86.232	1239.3	290.17
306	1.2708	342.8	1220.9	293.77	221.83	1450.8	476.23	197.85	1441.5	130.46	219.44	1770.8	294.78	312.58	937.84	432.89	310.37	952.24	184.79	98.776	976.41	336.76	104.51	979.71	253.67	226.01	864.62	500.63	198.3	869.27	116.3	233.59	1030.7	475.61	213.55	1036.3	139.71	80.711	935.77	295.46	301.56	615.03	513.17	402.02	560.83	490.49	331.96	529.48	502.04	372.9	667.27	503.55	370.68	469.95	495.6	358.44	458.6	368.18	230.55	286.97	505.1	264.35	187.9	463.61	205.56	221.04	492.64	288.03	254.79	485.03	166.45	110.33	478.31	190.4	115.56	388.92	97.69	75.426	421.7	108.29	44.491	392.5	98.422	44.182	457.01	263.66	39.8	519.33	311.22	39.598	402.93	369.19	56.402	456.99	256.78	635.27	105.37	366.11	573.91	89.512	297.92	555.34	107.12	321.04	652.83	86.628	363.89	479.56	99.725	380.68	457.25	223.61	229.19	342.66	93.495	265.76	238.21	86.58	209.06	267.58	94.595	285.78	312.12	83.637	178.58	105.27	97.883	186.97	111.35	192.05	101.51	73.445	141.55	108.74	47.575	174.99	105.26	46.492	113.08	288.02	42.598	69.657	321.68	47.868	184.67	377.86	56.969	133.96	167.68	1494.3	308.1	86.216	1239.3	290.16
307	1.275	342.78	1221	293.75	221.81	1450.8	476.2	197.83	1441.5	130.44	219.41	1770.8	294.75	312.55	937.87	432.87	310.35	952.25	184.77	98.747	976.43	336.74	104.48	979.73	253.65	225.98	864.64	500.61	198.27	869.28	116.28	233.56	1030.7	475.59	213.53	1036.3	139.7	80.683	935.79	295.45	301.53	615.06	513.16	401.98	560.85	490.48	331.92	529.5	502.03	372.87	667.29	503.53	370.64	469.97	495.59	358.4	458.61	368.18	230.53	286.97	505.1	264.33	187.91	463.61	205.55	221.05	492.64	288.01	254.81	485.03	166.45	110.33	478.31	190.4	115.56	388.92	97.689	75.427	421.7	108.29	44.49	392.51	98.422	44.182	457.01	263.66	39.801	519.33	311.22	39.6	402.93	369.19	56.403	456.99	256.76	635.29	105.36	366.08	573.92	89.508	297.89	555.35	107.11	321.01	652.84	86.622	363.86	479.58	99.72	380.65	457.26	223.61	229.16	342.67	93.491	265.75	238.22	86.579	209.05	267.58	94.592	285.75	312.13	83.63	178.58	105.26	97.883	186.97	111.35	192.05	101.52	73.443	141.55	108.74	47.574	174.99	105.26	46.491	113.08	288.02	42.598	69.657	321.68	47.869	184.67	377.86	56.973	133.95	167.65	1494.3	308.07	86.199	1239.3	290.14
308	1.2792	342.76	1221	293.73	221.79	1450.8	476.18	197.82	1441.5	130.41	219.38	1770.8	294.72	312.51	937.89	432.85	310.32	952.27	184.75	98.718	976.45	336.72	104.45	979.76	253.62	225.95	864.66	500.59	198.25	869.3	116.26	233.52	1030.7	475.57	213.51	1036.3	139.68	80.655	935.81	295.44	301.49	615.09	513.15	401.95	560.87	490.46	331.89	529.52	502.03	372.84	667.31	503.52	370.6	470	495.58	358.37	458.63	368.17	230.5	286.98	505.09	264.32	187.92	463.61	205.53	221.05	492.64	288	254.82	485.02	166.44	110.33	478.31	190.39	115.56	388.92	97.689	75.427	421.7	108.29	44.49	392.51	98.422	44.182	457.01	263.66	39.801	519.33	311.22	39.602	402.93	369.19	56.404	456.99	256.73	635.3	105.34	366.05	573.93	89.503	297.86	555.36	107.1	320.98	652.85	86.616	363.83	479.59	99.715	380.62	457.28	223.61	229.14	342.68	93.485	265.74	238.23	86.578	209.03	267.59	94.589	285.73	312.15	83.624	178.59	105.26	97.882	186.97	111.35	192.05	101.53	73.44	141.55	108.74	47.573	174.99	105.26	46.49	113.08	288.02	42.598	69.657	321.68	47.87	184.67	377.86	56.978	133.95	167.63	1494.3	308.04	86.183	1239.3	290.12
